<?xml version="1.0" encoding="UTF-8"?>
<svg id="Layer_2" data-name="Layer 2" xmlns="http://www.w3.org/2000/svg" xmlns:xlink="http://www.w3.org/1999/xlink" viewBox="0 0 700 444">
  <defs>
    <style>
      .cls-1 {
        letter-spacing: -.04em;
      }

      .cls-2 {
        letter-spacing: 0em;
      }

      .cls-3 {
        letter-spacing: -.01em;
      }

      .cls-4 {
        letter-spacing: -.01em;
      }

      .cls-5 {
        letter-spacing: -.08em;
      }

      .cls-6 {
        letter-spacing: 0em;
      }

      .cls-7 {
        letter-spacing: -.02em;
      }

      .cls-8 {
        fill: url(#linear-gradient);
      }

      .cls-9 {
        letter-spacing: 0em;
      }

      .cls-10 {
        letter-spacing: 0em;
      }

      .cls-11 {
        letter-spacing: -.08em;
      }

      .cls-12 {
        letter-spacing: 0em;
      }

      .cls-13 {
        letter-spacing: -.03em;
      }

      .cls-14 {
        letter-spacing: -.03em;
      }

      .cls-15 {
        letter-spacing: -.03em;
      }

      .cls-16 {
        font-family: SatoshiVariable-Medium, 'Satoshi Variable';
        font-size: 10px;
        font-variation-settings: 'wght' 500;
        font-weight: 500;
      }

      .cls-16, .cls-17 {
        fill: #efeaea;
      }

      .cls-18 {
        letter-spacing: -.01em;
      }

      .cls-19 {
        letter-spacing: -.02em;
      }

      .cls-20 {
        fill: #ffdb26;
      }

      .cls-21 {
        fill: #ef5c00;
      }

      .cls-22 {
        fill: #938d8d;
      }

      .cls-23 {
        fill: #252a42;
      }

      .cls-24 {
        fill: #212539;
      }

      .cls-25 {
        fill: #1c1616;
      }

      .cls-26 {
        fill: #181c31;
      }

      .cls-27 {
        fill: #77f28a;
      }

      .cls-28 {
        letter-spacing: -.01em;
      }

      .cls-29 {
        letter-spacing: -.02em;
      }

      .cls-30 {
        letter-spacing: -.02em;
      }

      .cls-31 {
        letter-spacing: .04em;
      }

      .cls-32 {
        letter-spacing: .04em;
      }

      .cls-33 {
        letter-spacing: -.02em;
      }

      .cls-34 {
        letter-spacing: 0em;
      }

      .cls-35 {
        letter-spacing: -.01em;
      }

      .cls-36 {
        letter-spacing: 0em;
      }

      .cls-37 {
        letter-spacing: 0em;
      }

      .cls-38 {
        letter-spacing: 0em;
      }

      .cls-39 {
        letter-spacing: 0em;
      }

      .cls-40 {
        letter-spacing: -.09em;
      }

      .cls-41 {
        letter-spacing: -.02em;
      }

      .cls-42 {
        letter-spacing: -.04em;
      }

      .cls-43 {
        letter-spacing: -.01em;
      }

      .cls-44 {
        letter-spacing: 0em;
      }

      .cls-45 {
        letter-spacing: 0em;
      }

      .cls-46 {
        letter-spacing: 0em;
      }

      .cls-47 {
        letter-spacing: 0em;
      }

      .cls-48 {
        fill: url(#linear-gradient-3);
      }

      .cls-49 {
        fill: url(#linear-gradient-4);
      }

      .cls-50 {
        fill: url(#linear-gradient-2);
      }

      .cls-51 {
        fill: url(#linear-gradient-6);
      }

      .cls-52 {
        fill: url(#linear-gradient-7);
      }

      .cls-53 {
        fill: url(#linear-gradient-5);
      }

      .cls-54 {
        letter-spacing: .03em;
      }

      .cls-55 {
        letter-spacing: .02em;
      }

      .cls-56 {
        letter-spacing: 0em;
      }

      .cls-57 {
        letter-spacing: 0em;
      }

      .cls-58 {
        letter-spacing: -.01em;
      }

      .cls-59 {
        letter-spacing: -.09em;
      }

      .cls-60 {
        letter-spacing: -.02em;
      }

      .cls-61 {
        letter-spacing: .02em;
      }

      .cls-62 {
        letter-spacing: -.09em;
      }

      .cls-63 {
        letter-spacing: -.02em;
      }

      .cls-64 {
        letter-spacing: 0em;
      }

      .cls-65 {
        letter-spacing: 0em;
      }

      .cls-66 {
        letter-spacing: -.02em;
      }

      .cls-67 {
        letter-spacing: -.02em;
      }

      .cls-68 {
        letter-spacing: -.02em;
      }

      .cls-17 {
        font-family: SatoshiVariable-Bold, 'Satoshi Variable';
        font-size: 12px;
        font-variation-settings: 'wght' 700;
        font-weight: 700;
      }
    </style>
    <linearGradient id="linear-gradient" x1="361.78" y1="108.18" x2="361.6" y2="35.8" gradientUnits="userSpaceOnUse">
      <stop offset="0" stop-color="#cdd5f7" stop-opacity=".35"/>
      <stop offset="1" stop-color="#cdd5f7" stop-opacity="0"/>
    </linearGradient>
    <linearGradient id="linear-gradient-2" x1="362.09" y1="414.17" x2="361.01" y2="-6" xlink:href="#linear-gradient"/>
    <linearGradient id="linear-gradient-3" x1="197.55" y1="402.51" x2="197.48" y2="371.87" xlink:href="#linear-gradient"/>
    <linearGradient id="linear-gradient-4" x1="250.74" y1="402.51" x2="250.66" y2="371.87" xlink:href="#linear-gradient"/>
    <linearGradient id="linear-gradient-5" x1="303.8" y1="402.51" x2="303.72" y2="371.87" xlink:href="#linear-gradient"/>
    <linearGradient id="linear-gradient-6" x1="372.22" y1="402.55" x2="372.14" y2="371.78" xlink:href="#linear-gradient"/>
    <linearGradient id="linear-gradient-7" x1="448.09" y1="402.52" x2="448.01" y2="371.84" xlink:href="#linear-gradient"/>
  </defs>
  <g id="Layer_1-2" data-name="Layer 1">
    <rect class="cls-23" width="700" height="444" rx="10" ry="10"/>
    <path class="cls-27" d="m60.24,28.16c2.35,0,4.25-1.95,4.25-4.36s-1.9-4.36-4.25-4.36-4.25,1.95-4.25,4.36,1.9,4.36,4.25,4.36Z"/>
    <path class="cls-21" d="m29.17,28.16c2.35,0,4.25-1.95,4.25-4.36s-1.9-4.36-4.25-4.36-4.25,1.95-4.25,4.36,1.9,4.36,4.25,4.36Z"/>
    <path class="cls-20" d="m44.39,28.16c2.35,0,4.25-1.95,4.25-4.36s-1.9-4.36-4.25-4.36-4.25,1.95-4.25,4.36,1.9,4.36,4.25,4.36Z"/>
    <path class="cls-24" d="m35.17,42.61h642c3.31,0,6,2.79,6,6.23v375.69c0,3.44-2.69,6.23-6,6.23H35.17c-3.31,0-6-2.79-6-6.23V48.84c0-3.44,2.69-6.23,6-6.23Z"/>
    <circle class="cls-25" cx="115.84" cy="76.35" r="15.84"/>
    <circle class="cls-22" cx="115.84" cy="143.55" r="15.84"/>
    <path class="cls-26" d="m419.88,267.42v-7.13h1.39v7.13h-1.39Zm.7-8.23c-.24,0-.45-.08-.62-.24-.17-.16-.26-.36-.26-.59s.08-.42.26-.58c.17-.16.38-.25.62-.25s.45.08.62.25c.17.16.26.36.26.58s-.09.42-.26.59c-.17.16-.38.24-.62.24Z"/>
    <rect class="cls-8" x="155.72" y="58.96" width="412" height="48.85" rx="14.78" ry="14.78"/>
    <rect class="cls-50" x="155.72" y="126.05" width="412" height="288.36" rx="24.42" ry="24.42"/>
    <text class="cls-17" transform="translate(177.93 85.28)"><tspan x="0" y="0">Find cases whe</tspan><tspan class="cls-68" x="85.04" y="0">r</tspan><tspan x="89.55" y="0">e alibi de</tspan><tspan class="cls-28" x="139.8" y="0">f</tspan><tspan class="cls-44" x="143.68" y="0">e</tspan><tspan class="cls-39" x="150.37" y="0">n</tspan><tspan class="cls-44" x="157.36" y="0">se </tspan><tspan class="cls-33" x="172.84" y="0">w</tspan><tspan class="cls-45" x="182.13" y="0">as </tspan><tspan class="cls-4" x="197.5" y="0">u</tspan><tspan class="cls-44" x="204.38" y="0">sed</tspan></text>
    <text class="cls-17" transform="translate(174.76 152.49)"><tspan class="cls-4" x="0" y="0">C</tspan><tspan class="cls-36" x="8.99" y="0">ase Number: A</tspan><tspan class="cls-12" x="91.73" y="0">3</tspan><tspan class="cls-1" x="98.6" y="0">4</tspan><tspan class="cls-40" x="105.89" y="0">7</tspan><tspan class="cls-28" x="111.32" y="0">/</tspan><tspan class="cls-44" x="116.03" y="0">2010</tspan></text>
    <text class="cls-17" transform="translate(174.82 175.47)"><tspan x="0" y="0">Summa</tspan><tspan class="cls-55" x="41.92" y="0">r</tspan><tspan x="46.81" y="0">y</tspan></text>
    <text class="cls-17" transform="translate(174.36 264.14)"><tspan x="0" y="0">J</tspan><tspan class="cls-4" x="6.61" y="0">u</tspan><tspan class="cls-36" x="13.49" y="0">dgement</tspan></text>
    <text class="cls-17" transform="translate(175.57 330.21)"><tspan class="cls-4" x="0" y="0">L</tspan><tspan x="6.34" y="0">egal Iss</tspan><tspan class="cls-4" x="47.81" y="0">u</tspan><tspan x="54.68" y="0">es</tspan></text>
    <text class="cls-17" transform="translate(175.85 373.97)"><tspan class="cls-42" x="0" y="0">K</tspan><tspan class="cls-67" x="7.64" y="0">e</tspan><tspan class="cls-46" x="14.12" y="0">y</tspan><tspan class="cls-7" x="20.47" y="0">w</tspan><tspan class="cls-36" x="29.76" y="0">o</tspan><tspan class="cls-67" x="36.91" y="0">r</tspan><tspan x="41.42" y="0">ds</tspan></text>
    <text class="cls-16" transform="translate(175.17 192.47)"><tspan x="0" y="0">The appellant </tspan><tspan class="cls-60" x="63.96" y="0">w</tspan><tspan x="71.42" y="0">as co</tspan><tspan class="cls-64" x="95.12" y="0">n</tspan><tspan x="100.77" y="0">vic</tspan><tspan class="cls-65" x="113.5" y="0">t</tspan><tspan x="116.63" y="0">ed </tspan><tspan class="cls-6" x="130.78" y="0">o</tspan><tspan x="136.56" y="0">f assault (common) and mu</tspan><tspan class="cls-29" x="258.39" y="0">r</tspan><tspan x="261.89" y="0">de</tspan><tspan class="cls-5" x="273.31" y="0">r</tspan><tspan x="276.2" y="0">. The S</tspan><tspan class="cls-2" x="306.98" y="0">t</tspan><tspan class="cls-47" x="310.1" y="0">a</tspan><tspan class="cls-65" x="315.36" y="0">t</tspan><tspan x="318.49" y="0">e </tspan><tspan class="cls-29" x="326.64" y="0">r</tspan><tspan x="330.14" y="0">elied on</tspan><tspan x="0" y="12">the </tspan><tspan class="cls-66" x="17.08" y="12">e</tspan><tspan x="22.33" y="12">vidence </tspan><tspan class="cls-6" x="60.38" y="12">o</tspan><tspan x="66.16" y="12">f t</tspan><tspan class="cls-60" x="75.24" y="12">w</tspan><tspan x="82.7" y="12">o witnesses </tspan><tspan class="cls-63" x="137.16" y="12">f</tspan><tspan class="cls-10" x="140.18" y="12">or the assault cha</tspan><tspan class="cls-58" x="219.47" y="12">r</tspan><tspan class="cls-10" x="223.04" y="12">g</tspan><tspan class="cls-14" x="229.02" y="12">e</tspan><tspan x="234.14" y="12">, and t</tspan><tspan class="cls-60" x="262.63" y="12">w</tspan><tspan x="270.09" y="12">o witnesses </tspan><tspan class="cls-18" x="324.55" y="12">f</tspan><tspan x="327.57" y="12">or the</tspan><tspan x="0" y="24">mu</tspan><tspan class="cls-41" x="14.29" y="24">r</tspan><tspan x="17.79" y="24">der cha</tspan><tspan class="cls-58" x="52.05" y="24">r</tspan><tspan class="cls-9" x="55.62" y="24">g</tspan><tspan class="cls-14" x="61.6" y="24">e</tspan><tspan x="66.72" y="24">. The appellant app</tspan><tspan class="cls-65" x="153.51" y="24">e</tspan><tspan class="cls-10" x="158.88" y="24">aled on b</tspan><tspan class="cls-65" x="201" y="24">o</tspan><tspan x="206.76" y="24">th co</tspan><tspan class="cls-64" x="229.57" y="24">n</tspan><tspan x="235.22" y="24">viction and sen</tspan><tspan class="cls-65" x="303.19" y="24">t</tspan><tspan x="306.32" y="24">enc</tspan><tspan class="cls-13" x="322.83" y="24">e</tspan><tspan x="327.95" y="24">, a</tspan><tspan class="cls-43" x="338.78" y="24">r</tspan><tspan x="342.35" y="24">guing </tspan><tspan x="0" y="36">th</tspan><tspan class="cls-57" x="8.93" y="36">a</tspan><tspan x="14.19" y="36">t he had an alibi and th</tspan><tspan class="cls-47" x="117.4" y="36">a</tspan><tspan class="cls-10" x="122.66" y="36">t the identific</tspan><tspan class="cls-47" x="181.53" y="36">a</tspan><tspan x="186.79" y="36">tion </tspan><tspan class="cls-6" x="206.56" y="36">o</tspan><tspan x="212.34" y="36">f him </tspan><tspan class="cls-19" x="237.64" y="36">b</tspan><tspan class="cls-10" x="243.47" y="36">y the witnesses </tspan><tspan class="cls-60" x="314.18" y="36">w</tspan><tspan x="321.64" y="36">as</tspan><tspan x="0" y="48">un</tspan><tspan class="cls-41" x="11.42" y="48">r</tspan><tspan x="14.92" y="48">eliabl</tspan><tspan class="cls-15" x="38.66" y="48">e</tspan><tspan x="43.78" y="48">.</tspan></text>
    <text class="cls-16" transform="translate(174.76 281.21)"><tspan x="0" y="0">The app</tspan><tspan class="cls-65" x="36.86" y="0">e</tspan><tspan x="42.23" y="0">al </tspan><tspan class="cls-60" x="52.64" y="0">w</tspan><tspan x="60.1" y="0">as dismissed and the co</tspan><tspan class="cls-3" x="167.51" y="0">n</tspan><tspan x="173.16" y="0">viction and sen</tspan><tspan class="cls-65" x="241.13" y="0">t</tspan><tspan x="244.26" y="0">ence </tspan><tspan class="cls-60" x="268.92" y="0">w</tspan><tspan x="276.38" y="0">e</tspan><tspan class="cls-30" x="281.8" y="0">r</tspan><tspan x="285.3" y="0">e confirmed. The</tspan><tspan x="0" y="12">c</tspan><tspan class="cls-35" x="5.34" y="12">o</tspan><tspan x="11.03" y="12">u</tspan><tspan class="cls-61" x="16.7" y="12">r</tspan><tspan class="cls-9" x="20.58" y="12">t </tspan><tspan class="cls-63" x="26.49" y="12">f</tspan><tspan class="cls-35" x="29.51" y="12">o</tspan><tspan x="35.2" y="12">und th</tspan><tspan class="cls-47" x="64.28" y="12">a</tspan><tspan x="69.54" y="12">t the alibi de</tspan><tspan class="cls-18" x="124.96" y="12">f</tspan><tspan x="127.98" y="12">e</tspan><tspan class="cls-38" x="133.4" y="12">n</tspan><tspan x="139.09" y="12">se </tspan><tspan class="cls-60" x="151.72" y="12">w</tspan><tspan x="159.18" y="12">as n</tspan><tspan class="cls-65" x="177.48" y="12">o</tspan><tspan class="cls-10" x="183.24" y="12">t c</tspan><tspan class="cls-29" x="194.49" y="12">r</tspan><tspan x="197.99" y="12">edible and th</tspan><tspan class="cls-47" x="256.95" y="12">a</tspan><tspan x="262.21" y="12">t the identific</tspan><tspan class="cls-47" x="321.08" y="12">a</tspan><tspan x="326.34" y="12">tion </tspan><tspan class="cls-6" x="346.11" y="12">o</tspan><tspan x="351.89" y="12">f</tspan><tspan x="0" y="24">the appellant </tspan><tspan class="cls-19" x="61.52" y="24">b</tspan><tspan class="cls-10" x="67.35" y="24">y the witnesses </tspan><tspan class="cls-60" x="138.06" y="24">w</tspan><tspan x="145.52" y="24">as </tspan><tspan class="cls-29" x="158.07" y="24">r</tspan><tspan x="161.57" y="24">eliabl</tspan><tspan class="cls-14" x="185.31" y="24">e</tspan><tspan x="190.43" y="24">.</tspan></text>
    <text class="cls-16" transform="translate(175.33 349.56)"><tspan class="cls-31" x="0" y="0">[</tspan><tspan class="cls-11" x="3.19" y="0">&quot;</tspan><tspan x="6.11" y="0">Assaul</tspan><tspan class="cls-37" x="35.04" y="0">t</tspan><tspan class="cls-59" x="38.31" y="0">&quot;</tspan><tspan class="cls-9" x="41.14" y="0">, &quot;Mu</tspan><tspan class="cls-29" x="64.62" y="0">r</tspan><tspan x="68.12" y="0">de</tspan><tspan class="cls-54" x="79.54" y="0">r</tspan><tspan class="cls-62" x="83.52" y="0">&quot;</tspan><tspan x="86.35" y="0">, &quot;Identific</tspan><tspan class="cls-56" x="131.81" y="0">a</tspan><tspan x="137.07" y="0">tio</tspan><tspan class="cls-64" x="148.36" y="0">n</tspan><tspan class="cls-62" x="154.01" y="0">&quot;</tspan><tspan x="156.84" y="0">, </tspan><tspan class="cls-11" x="162.33" y="0">&quot;</tspan><tspan class="cls-34" x="165.25" y="0">Alibi de</tspan><tspan class="cls-18" x="198.96" y="0">f</tspan><tspan x="201.98" y="0">e</tspan><tspan class="cls-38" x="207.4" y="0">n</tspan><tspan class="cls-10" x="213.09" y="0">s</tspan><tspan class="cls-3" x="217.57" y="0">e</tspan><tspan class="cls-32" x="222.89" y="0">&quot;</tspan><tspan x="227.01" y="0">]</tspan></text>
    <rect class="cls-48" x="174.73" y="381.5" width="45.6" height="21.03" rx="10.52" ry="10.52"/>
    <text class="cls-16" transform="translate(182.41 395.02)"><tspan x="0" y="0">assault</tspan></text>
    <rect class="cls-49" x="227.91" y="381.5" width="45.6" height="21.03" rx="10.52" ry="10.52"/>
    <text class="cls-16" transform="translate(235.17 394.98)"><tspan x="0" y="0">mu</tspan><tspan class="cls-41" x="14.29" y="0">r</tspan><tspan x="17.79" y="0">der</tspan></text>
    <rect class="cls-53" x="280.97" y="381.5" width="45.6" height="21.03" rx="10.52" ry="10.52"/>
    <text class="cls-16" transform="translate(293.5 394.98)"><tspan x="0" y="0">alibi</tspan></text>
    <rect class="cls-51" x="331.48" y="381.5" width="81.43" height="21.03" rx="10.52" ry="10.52"/>
    <text class="cls-16" transform="translate(344.01 394.98)"><tspan x="0" y="0">identific</tspan><tspan class="cls-57" x="35.88" y="0">a</tspan><tspan x="41.14" y="0">tion</tspan></text>
    <rect class="cls-52" x="418.54" y="381.5" width="59.04" height="21.03" rx="10.52" ry="10.52"/>
    <text class="cls-16" transform="translate(431.08 394.98)"><tspan x="0" y="0">witness</tspan></text>
  </g>
</svg>